<svg xmlns="http://www.w3.org/2000/svg" viewBox="0 0 50 50" width="200" height="200">
<defs>
<style>.b{stroke:white;stroke-width:0.1;fill:black;}.r{stroke:white;stroke-width:0.1;fill:red;}</style>
<path id="club" class="b" d="M27 32
a30 30 0 0 0 4 10
a20 20 0 0 0 -12 0
a30 30 0 0 0 4 -10
a10 10 0 0 0 -3 2
a8 8 0 1 1 0 -10
a10 10 0 0 0 3 2
a8 8 0 0 0 -3 -5
a8 8 0 1 1 10 0
a8 8 0 0 0 -3 5
a10 10 0 0 0 3 -2
a8 8 0 1 1 0 10
a10 10 0 0 0 -3 -2
z"/>
<path id="diamond" class="r" d="M8 25
a80 80 0 0 0 17 -22
a80 80 0 0 0 17 22
a80 80 0 0 0 -17 22
a80 80 0 0 0 -17 -22
z"/>
<path id="heart" class="r" d="M25 12
a1 1 0 0 1 16 8
c-4,8 -8,8 -16,22
c-4,-8 -12,-14 -16,-22
a1 1 0 0 1 16 -8
z" />
<path id="spade" class="b" d="M24 5
a1.5 1.5 0 0 1 2 0
a80 80 0 0 0 10 10
l4 4
a10 10 0 0 1 -13 15
a30 30 0 0 0 4 10
a20 20 0 0 0 -12 0
a30 30 0 0 0 4 -10
a10 10 0 0 1 -13 -15
l4 -4
a80 80 0 0 0 10 -10
z" />
</defs>
<g transform="translate(0,0)scale(0.5)"><use href="#club"/></g>
<g transform="translate(25,0)scale(0.5)"><use href="#heart"/></g>
<g transform="translate(0,25)scale(0.5)"><use href="#diamond"/></g>
<g transform="translate(25,25)scale(0.5)"><use href="#spade"/></g>
</svg>